<svg width="33" height="32" viewBox="0 0 33 32" fill="none" xmlns="http://www.w3.org/2000/svg">
<g id="ArrowRight">
<path id="Vector" d="M27.9575 16.7075L18.9575 25.7075C18.7699 25.8951 18.5154 26.0006 18.25 26.0006C17.9846 26.0006 17.7301 25.8951 17.5425 25.7075C17.3549 25.5199 17.2494 25.2654 17.2494 25C17.2494 24.7346 17.3549 24.4801 17.5425 24.2925L24.8363 17H5.25C4.98478 17 4.73043 16.8947 4.54289 16.7071C4.35536 16.5196 4.25 16.2652 4.25 16C4.25 15.7348 4.35536 15.4804 4.54289 15.2929C4.73043 15.1054 4.98478 15 5.25 15H24.8363L17.5425 7.70751C17.3549 7.51987 17.2494 7.26537 17.2494 7.00001C17.2494 6.73464 17.3549 6.48015 17.5425 6.29251C17.7301 6.10487 17.9846 5.99945 18.25 5.99945C18.5154 5.99945 18.7699 6.10487 18.9575 6.29251L27.9575 15.2925C28.0505 15.3854 28.1242 15.4957 28.1746 15.6171C28.2249 15.7385 28.2508 15.8686 28.2508 16C28.2508 16.1314 28.2249 16.2615 28.1746 16.3829C28.1242 16.5043 28.0505 16.6146 27.9575 16.7075Z" fill="#343330"/>
</g>
</svg>
