<svg width="49" height="48" viewBox="0 0 49 48" fill="none" xmlns="http://www.w3.org/2000/svg">
<g id="FilePdf">
<path id="Vector" d="M42.5 28.5C42.5 28.8978 42.342 29.2794 42.0607 29.5607C41.7794 29.842 41.3978 30 41 30H36.5V33H39.5C39.8978 33 40.2794 33.158 40.5607 33.4393C40.842 33.7206 41 34.1022 41 34.5C41 34.8978 40.842 35.2794 40.5607 35.5607C40.2794 35.842 39.8978 36 39.5 36H36.5V39C36.5 39.3978 36.342 39.7794 36.0607 40.0607C35.7794 40.342 35.3978 40.5 35 40.5C34.6022 40.5 34.2206 40.342 33.9393 40.0607C33.658 39.7794 33.5 39.3978 33.5 39V28.5C33.5 28.1022 33.658 27.7206 33.9393 27.4393C34.2206 27.158 34.6022 27 35 27H41C41.3978 27 41.7794 27.158 42.0607 27.4393C42.342 27.7206 42.5 28.1022 42.5 28.5ZM17.75 32.25C17.75 33.6424 17.1969 34.9777 16.2123 35.9623C15.2277 36.9469 13.8924 37.5 12.5 37.5H11V39C11 39.3978 10.842 39.7794 10.5607 40.0607C10.2794 40.342 9.89782 40.5 9.5 40.5C9.10218 40.5 8.72064 40.342 8.43934 40.0607C8.15804 39.7794 8 39.3978 8 39V28.5C8 28.1022 8.15804 27.7206 8.43934 27.4393C8.72064 27.158 9.10218 27 9.5 27H12.5C13.8924 27 15.2277 27.5531 16.2123 28.5377C17.1969 29.5223 17.75 30.8576 17.75 32.25ZM14.75 32.25C14.75 31.6533 14.5129 31.081 14.091 30.659C13.669 30.2371 13.0967 30 12.5 30H11V34.5H12.5C13.0967 34.5 13.669 34.2629 14.091 33.841C14.5129 33.419 14.75 32.8467 14.75 32.25ZM31.25 33.75C31.25 35.5402 30.5388 37.2571 29.273 38.523C28.0071 39.7888 26.2902 40.5 24.5 40.5H21.5C21.1022 40.5 20.7206 40.342 20.4393 40.0607C20.158 39.7794 20 39.3978 20 39V28.5C20 28.1022 20.158 27.7206 20.4393 27.4393C20.7206 27.158 21.1022 27 21.5 27H24.5C26.2902 27 28.0071 27.7112 29.273 28.977C30.5388 30.2429 31.25 31.9598 31.25 33.75ZM28.25 33.75C28.25 32.7554 27.8549 31.8016 27.1516 31.0984C26.4484 30.3951 25.4946 30 24.5 30H23V37.5H24.5C25.4946 37.5 26.4484 37.1049 27.1516 36.4016C27.8549 35.6984 28.25 34.7446 28.25 33.75ZM8 21V7.5C8 6.70435 8.31607 5.94129 8.87868 5.37868C9.44129 4.81607 10.2044 4.5 11 4.5H29C29.197 4.49985 29.3922 4.53851 29.5743 4.6138C29.7564 4.68908 29.9218 4.7995 30.0613 4.93875L40.5612 15.4388C40.7005 15.5782 40.8109 15.7436 40.8862 15.9257C40.9615 16.1078 41.0002 16.303 41 16.5V21C41 21.3978 40.842 21.7794 40.5607 22.0607C40.2794 22.342 39.8978 22.5 39.5 22.5C39.1022 22.5 38.7206 22.342 38.4393 22.0607C38.158 21.7794 38 21.3978 38 21V18H29C28.6022 18 28.2206 17.842 27.9393 17.5607C27.658 17.2794 27.5 16.8978 27.5 16.5V7.5H11V21C11 21.3978 10.842 21.7794 10.5607 22.0607C10.2794 22.342 9.89782 22.5 9.5 22.5C9.10218 22.5 8.72064 22.342 8.43934 22.0607C8.15804 21.7794 8 21.3978 8 21ZM30.5 15H35.8794L30.5 9.62063V15Z" fill="#343330"/>
</g>
</svg>
