<svg width="37" height="36" viewBox="0 0 37 36" fill="none" xmlns="http://www.w3.org/2000/svg">
<g id="DownloadSimple">
<path id="Vector" d="M32 21.375V29.25C32 29.8467 31.7629 30.419 31.341 30.841C30.919 31.2629 30.3467 31.5 29.75 31.5H7.25C6.65326 31.5 6.08097 31.2629 5.65901 30.841C5.23705 30.419 5 29.8467 5 29.25V21.375C5 21.0766 5.11853 20.7905 5.32951 20.5795C5.54048 20.3685 5.82663 20.25 6.125 20.25C6.42337 20.25 6.70952 20.3685 6.92049 20.5795C7.13147 20.7905 7.25 21.0766 7.25 21.375V29.25H29.75V21.375C29.75 21.0766 29.8685 20.7905 30.0795 20.5795C30.2905 20.3685 30.5766 20.25 30.875 20.25C31.1734 20.25 31.4595 20.3685 31.6705 20.5795C31.8815 20.7905 32 21.0766 32 21.375ZM17.7041 22.1709C17.8085 22.2755 17.9326 22.3585 18.0692 22.4151C18.2058 22.4717 18.3522 22.5009 18.5 22.5009C18.6478 22.5009 18.7942 22.4717 18.9308 22.4151C19.0674 22.3585 19.1915 22.2755 19.2959 22.1709L24.9209 16.5459C25.0255 16.4414 25.1084 16.3173 25.1649 16.1808C25.2215 16.0442 25.2506 15.8978 25.2506 15.75C25.2506 15.6022 25.2215 15.4558 25.1649 15.3192C25.1084 15.1827 25.0255 15.0586 24.9209 14.9541C24.8164 14.8495 24.6923 14.7666 24.5558 14.7101C24.4192 14.6535 24.2728 14.6244 24.125 14.6244C23.9772 14.6244 23.8308 14.6535 23.6942 14.7101C23.5577 14.7666 23.4336 14.8495 23.3291 14.9541L19.625 18.6595V5.625C19.625 5.32663 19.5065 5.04048 19.2955 4.82951C19.0845 4.61853 18.7984 4.5 18.5 4.5C18.2016 4.5 17.9155 4.61853 17.7045 4.82951C17.4935 5.04048 17.375 5.32663 17.375 5.625V18.6595L13.6709 14.9541C13.4598 14.743 13.1735 14.6244 12.875 14.6244C12.5765 14.6244 12.2902 14.743 12.0791 14.9541C11.868 15.1652 11.7494 15.4515 11.7494 15.75C11.7494 16.0485 11.868 16.3348 12.0791 16.5459L17.7041 22.1709Z" fill="#343330"/>
</g>
</svg>
